<?xml version="1.0" encoding="utf-8"?>
<!-- Generator: Adobe Illustrator 25.2.0, SVG Export Plug-In . SVG Version: 6.00 Build 0)  -->
<svg version="1.1" id="Layer_1" xmlns="http://www.w3.org/2000/svg" xmlns:xlink="http://www.w3.org/1999/xlink" x="0px" y="0px"
	 viewBox="0 0 500 317.1" style="enable-background:new 0 0 500 317.1;" xml:space="preserve">
<style type="text/css">
	.st0{fill:#F5F5F5;}
	.st1{fill:#EBEBEB;}
	.st2{fill:#F26522;}
	.st3{opacity:0.2;enable-background:new    ;}
	.st4{fill:#FFFFFF;}
	.st5{fill:#E0E0E0;}
	.st6{fill:#F0F0F0;}
	.st7{fill:#455A64;}
	.st8{fill:#37474F;}
	.st9{fill:#263238;}
	.st10{opacity:0.7;fill:#FFFFFF;enable-background:new    ;}
	.st11{opacity:0.1;fill:#CE4109;enable-background:new    ;}
	.st12{opacity:0.2;fill:#FFFFFF;enable-background:new    ;}
	.st13{opacity:0.1;enable-background:new    ;}
	.st14{fill:#FFA8A7;}
	.st15{fill:#F28F8F;}
	.st16{opacity:0.3;enable-background:new    ;}
</style>
<g id="freepik--Floor--inject-2">
	<path class="st0" d="M124.8,281.9c68.9,32.8,180.6,32.9,249.5,0s68.9-86.1,0-118.9s-180.6-32.8-249.5,0S55.9,249.1,124.8,281.9z"/>
</g>
<g id="freepik--Shadow--inject-2">
	<ellipse class="st1" cx="374.5" cy="290.8" rx="23" ry="11"/>
</g>
<path class="st2" d="M120,292.3l8.1-4.7c4.5-3.7,8-8.6,10-14.1c2.5-6.9,2.2-12.2,0.4-14.8c-2.2-3.3-7.9-2.7-8.2,4.2
	C129.8,276.4,125.9,285.7,120,292.3z"/>
<path class="st3" d="M120,292.3l8.1-4.7c4.5-3.7,8-8.6,10-14.1c2.5-6.9,2.2-12.2,0.4-14.8c-2.2-3.3-7.9-2.7-8.2,4.2
	C129.8,276.4,125.9,285.7,120,292.3z"/>
<path class="st4" d="M120,292.8c-0.3,0-0.5-0.2-0.5-0.5c0-0.2,0.1-0.3,0.2-0.4c18.8-13,15.2-31.1,15.1-31.3
	c-0.1-0.3,0.1-0.5,0.4-0.6c0.3-0.1,0.5,0.1,0.6,0.4c0,0.2,3.8,18.9-15.5,32.3C120.2,292.8,120.1,292.8,120,292.8z"/>
<path class="st2" d="M103.7,301.7c0,0-2.8-2.3-2.2-5.4s2.5-5.4-0.6-9.4s-4-9.4-0.3-12.3c2.8-2.2,7.3,0.9,8.9-5
	c1.2-4.3,0.8-14,6.3-17.2s9,1.6,8.1,8.1c-0.8,5.8-1.8,11.4-1,13c1.6,3,4.4,2.6,4.3,8.1c-0.1,5.1-4.9,9.3-4.9,9.3L103.7,301.7z"/>
<path class="st4" d="M113,296.9c-0.3,0-0.5-0.2-0.5-0.4c-1.4-11.9,2-32.3,4.8-38.4c0.1-0.3,0.4-0.4,0.6-0.3c0,0,0,0,0.1,0
	c0.2,0.1,0.4,0.4,0.2,0.6c0,0,0,0,0,0c-2.8,6-6.1,26.5-4.7,37.9C113.6,296.5,113.4,296.8,113,296.9L113,296.9z"/>
<path class="st4" d="M112.7,287.6c-0.1,0-0.2,0-0.2,0c-3.5-1.7-5.7-7.7-5.8-8c-0.1-0.3,0-0.5,0.3-0.6c0.3-0.1,0.5,0,0.6,0.3
	c0,0,0,0,0,0c0,0.1,2.2,5.9,5.3,7.4c0.2,0.1,0.4,0.4,0.2,0.7C113.1,287.5,112.9,287.6,112.7,287.6L112.7,287.6z"/>
<path class="st4" d="M112.7,291.6c-0.2,0-0.4-0.1-0.5-0.3c-0.1-0.3,0-0.5,0.3-0.6c5.8-2.3,9.5-9.3,9.5-9.4c0.1-0.2,0.4-0.3,0.7-0.2
	c0.2,0.1,0.3,0.4,0.2,0.7c-0.2,0.3-3.8,7.4-10,9.8C112.8,291.6,112.7,291.6,112.7,291.6z"/>
<path class="st2" d="M316.8,237.8c0,0-4.4-7.1-4.8-14.8s1.3-10.9,3.6-11.8s2.5,1.9,3.7,3.6s3.6,0.7,4.5-4.5s4.2-14,11-15.7
	c7.5-1.9,3.5,6.9,1.6,10.4s-3.4,8.1-2.1,9.4s3.2-1.1,5,1.1c2.2,2.6-4.7,12.1-8.7,14.4L316.8,237.8z"/>
<path class="st4" d="M322.8,234.9L322.8,234.9c-0.3,0-0.5-0.2-0.5-0.5c0,0,0,0,0,0c0.7-12.4,4.5-24.4,11.2-34.8
	c0.2-0.2,0.5-0.3,0.7-0.1c0,0,0,0,0,0c0.2,0.2,0.3,0.5,0.1,0.7c-6.5,10.3-10.3,22.1-11,34.3C323.3,234.7,323.1,234.9,322.8,234.9
	C322.8,234.9,322.8,234.9,322.8,234.9z"/>
<path class="st4" d="M323.4,228.9c-0.1,0-0.2,0-0.2-0.1c-2.8-1.5-4.4-6.1-4.4-6.3c-0.1-0.3,0-0.5,0.3-0.6c0,0,0,0,0,0
	c0.3-0.1,0.5,0.1,0.6,0.3c0,0,1.5,4.4,4,5.8c0.2,0.1,0.3,0.4,0.2,0.7C323.7,228.9,323.6,229,323.4,228.9z"/>
<path class="st4" d="M323.9,225.9c-0.2,0-0.4-0.2-0.5-0.4c-0.1-0.3,0.1-0.5,0.4-0.6c0,0,0,0,0,0c7.2-1.8,9.7-5.6,9.7-5.6
	c0.1-0.2,0.5-0.3,0.7-0.2s0.3,0.5,0.2,0.7l0,0c-0.1,0.2-2.7,4.1-10.3,6.1L323.9,225.9z"/>
<path class="st2" d="M208,222.3c0,0-9.6-2.3-10.1-20.3c-0.5-19.4,2.4-42-9-43.8s-17.6,12-17.5,28.1c0.1,14.1,5.8,44.8,36.6,50.9
	L208,222.3z"/>
<path class="st3" d="M208,222.3c0,0-9.6-2.3-10.1-20.3c-0.5-19.4,2.4-42-9-43.8s-17.6,12-17.5,28.1c0.1,14.1,5.8,44.8,36.6,50.9
	L208,222.3z"/>
<path class="st4" d="M208,235.3L208,235.3c-7-1.3-12.6-5.1-16.8-11.3c-12.4-18.5-8.5-53.1-7.2-59.2c0.1-0.3,0.3-0.4,0.6-0.4
	c0.3,0.1,0.4,0.3,0.4,0.6c-1.3,6-5.2,40.2,7.1,58.4c3.6,5.7,9.4,9.7,16.1,10.9c0.3,0,0.5,0.3,0.4,0.6c0,0,0,0,0,0
	C208.4,235.2,208.2,235.3,208,235.3z"/>
<path class="st2" d="M208,281.4c-9.9,1.3-26,1.3-35.3-6s-7.4-13.6-3.8-16.2s6.7-5.6,0.5-11.5s-16-15.2-19.2-29.3s-1.6-22.9,4.7-25.8
	c6.1-2.8,7.7,1.7,11.4,11s12.1,1.3,19.3,4.2s6.9,8.7,7.3,13.6s2.8,6.3,6.9,6.3s8.1,2.3,8.1,7V281.4z"/>
<path class="st4" d="M208,265.1c0,0-0.1,0-0.1,0c-0.4-0.1-10.7-3.1-25.6-16.8c-15.9-14.6-23.4-36.5-23.5-36.7
	c-0.1-0.3,0.1-0.5,0.3-0.6c0.3-0.1,0.5,0.1,0.6,0.3c0.1,0.2,7.5,21.9,23.2,36.3c14.7,13.5,25.1,16.6,25.2,16.6
	c0.3,0.1,0.4,0.4,0.3,0.6C208.4,264.9,208.2,265.1,208,265.1z"/>
<path class="st4" d="M186.4,251.7c-0.2,0-0.4-0.1-0.5-0.3c-3.2-8.2-3.9-25.9-4-26.6c0-0.3,0.2-0.5,0.5-0.5c0.3,0,0.5,0.2,0.5,0.5
	c0,0.2,0.8,18.2,3.9,26.3c0.1,0.3,0,0.5-0.3,0.6c0,0,0,0,0,0C186.5,251.7,186.5,251.7,186.4,251.7z"/>
<path class="st4" d="M186.4,263.6c-0.9,0-1.8,0-2.8-0.1c-0.3,0-0.5-0.3-0.4-0.6s0.3-0.5,0.6-0.4c0.1,0,9.4,1.1,13.7-3.3
	c0.2-0.2,0.5-0.2,0.7-0.1c0.2,0.2,0.2,0.5,0.1,0.7c0,0,0,0-0.1,0.1C195,263.1,189.6,263.6,186.4,263.6z"/>
<g id="freepik--Gear--inject-2">
	<path class="st5" d="M179.1,74.2l-1.1-6.2l-5.6,3.7c-0.5-1-1.2-1.9-2.1-2.6l2.7-7.2l-5-1.1l-3.7,7c-1.3,0.2-2.6,0.6-3.8,1.2
		l-1.6-5.3l-5.9,4.7l0.4,6.2c-1.2,1.4-2.3,2.8-3.3,4.3l-4.9-0.2l-3.4,7.7l4.2,1.8c-0.4,1.6-0.7,3.2-0.8,4.9l-5.4,4.9l1.1,6.2
		l5.6-3.7c0.5,1,1.2,1.9,2.1,2.6l-2.6,7.2l5,1.1l5.2-5.1c1.2-0.2,0.9-2.5,2.2-3.1l1.6,5.3l5.9-4.7l-0.1-2.4c1.2-1.3,5.7-4.3,6.7-5.8
		l1.2-2l3.4-7.7l-1.6-2.9l-1.8-3.8L179.1,74.2z M161,94.7c-4.6,3.6-6,4.4-6.8-0.4s1.8-12.1,6.4-15.7s6.3-3.8,7.1,0.9
		S165.6,91.2,161,94.7z"/>
	<polygon class="st0" points="168.1,60.8 174.6,64.5 170.9,71.5 164.4,67.8 	"/>
	<polygon class="st0" points="184.6,71.7 179,75.4 172.5,71.7 178.1,68 	"/>
	<polygon class="st5" points="183.7,89.6 179.5,87.8 173,84 177.2,85.8 	"/>
	<polygon class="st5" points="146,110.4 152.5,114.1 155.1,106.9 148.6,103.2 	"/>
	<polygon class="st5" points="166.5,112.2 160,108.5 158.4,103.2 164.9,107 	"/>
	<path class="st1" d="M185.6,78l-1.1-6.2l-5.6,3.7c-0.5-1-1.2-1.9-2.1-2.6l2.7-7.2l-4.9-1.1l-3.7,7c-1.3,0.2-2.6,0.6-3.8,1.2
		l-1.6-5.3l-5.9,4.7l0.4,6.2c-1.2,1.4-2.3,2.8-3.3,4.4l-4.9-0.2l-3.4,7.7l4.2,1.8c-0.4,1.6-0.7,3.2-0.8,4.9l-5.3,4.8l1.1,6.2
		l5.6-3.7c0.5,1,1.2,1.9,2.1,2.6l-2.7,7.2l5,1.1l3.7-7c1.3-0.2,2.6-0.6,3.8-1.2l1.6,5.3l5.9-4.7l-0.4-6.2c1.2-1.4,2.3-2.8,3.3-4.3
		l4.9,0.2l3.4-7.7l-4.3-1.8c0.4-1.6,0.7-3.2,0.8-4.9L185.6,78z M167.5,98.5c-4.6,3.6-8.9,2.6-9.7-2.2s2.2-11.6,6.8-15.1
		s8.9-2.6,9.7,2.2S172.1,94.9,167.5,98.5z"/>
	<polygon class="st0" points="165.5,67.5 159,63.7 153.1,68.4 159.6,72.2 	"/>
	<polygon class="st5" points="153.1,68.4 153.5,74.6 160,78.4 159.6,72.2 	"/>
	<polygon class="st0" points="156.7,82.7 150.2,79 145.3,78.7 151.8,82.5 	"/>
	<polygon class="st5" points="145.3,78.7 141.9,86.4 148.4,90.2 151.8,82.5 	"/>
	<polygon class="st0" points="151.7,96.8 145.2,93.1 139.9,98 146.4,101.8 	"/>
	<polygon class="st5" points="147.5,108 141,104.3 139.9,98 146.4,101.8 	"/>
	<polygon class="st0" points="174.6,64.5 168.1,60.8 173.1,61.9 179.5,65.6 	"/>
	<path class="st5" d="M150.1,46v-9.3l-7.4,3.3c-0.4-1.6-1.1-3.1-2-4.4l4.7-9.4l-5.7-3.3l-5.8,8.8c-1.6-0.1-3.3,0-4.8,0.5l-0.8-8.1
		l-8.1,4.7l-0.8,9c-1.8,1.6-3.4,3.3-4.8,5.1l-5.8-2l-5.7,9.9l4.7,4c-0.9,2.2-1.5,4.4-2,6.7l-7.4,5.2v9.3l7.4-3.3
		c0.4,1.6,1.1,3.1,2,4.4l-4.6,9.4l5.7,3.3l5.8-8.8c1.6,0.1,3.3,0,4.8-0.5l0.8,8.1l8.1-4.7l0.8-9c2.5-0.9,4.7-2.5,6.5-4.5l4.2,1.5
		l5.7-9.9l-3.5-3c0.8-2.5,1-5.1,0.8-7.7L150.1,46z M124.2,69.2c-6.2,3.6-10,1-10-6.1s5.1-15.9,11.3-19.5c6.2-3.6,9.9-1,9.9,6.2
		S130.4,65.6,124.2,69.2z"/>
	<polygon class="st0" points="146.1,26.6 139.6,22.9 133.8,31.6 140.3,35.4 	"/>
	<polygon class="st0" points="156.6,40.4 150.1,36.6 142.7,40 149.2,43.7 	"/>
	<polygon class="st5" points="126.6,92.3 120.1,88.5 119.3,80.5 125.8,84.2 	"/>
	<polygon class="st5" points="103,86.4 109.5,90.1 114.1,80.7 107.6,77 	"/>
	<path class="st1" d="M156.6,49.7v-9.3l-7.4,3.3c-0.4-1.6-1.1-3.1-2-4.4l4.7-9.4l-5.7-3.3l-5.8,8.8c-1.6-0.1-3.3,0-4.8,0.5l-0.8-8.1
		l-8.1,4.7l-0.8,9c-1.8,1.6-3.4,3.3-4.8,5.1l-5.8-2l-5.7,9.9l4.7,4c-0.9,2.2-1.5,4.4-2,6.7l-7.4,5.2v9.3l7.4-3.3
		c0.4,1.6,1.1,3.1,2,4.4l-4.7,9.4l5.7,3.3l5.8-8.8c1.6,0.1,3.3,0,4.8-0.5l0.8,8.1l8.1-4.7l0.8-9c1.8-1.6,3.4-3.3,4.8-5.1l5.8,2
		l5.7-9.9l-4.7-4c0.9-2.2,1.5-4.4,2-6.7L156.6,49.7z M130.6,73c-6.2,3.6-11.2,0.7-11.2-6.5s5-15.8,11.2-19.4
		c6.2-3.6,11.2-0.7,11.2,6.5S136.8,69.4,130.6,73L130.6,73z"/>
	<polygon class="st6" points="114.5,42.8 121,46.5 115.2,44.5 108.7,40.7 	"/>
	
		<rect x="103.4" y="43.8" transform="matrix(0.4997 -0.8662 0.8662 0.4997 13.3659 118.2769)" class="st0" width="11.4" height="7.5"/>
	<polygon class="st5" points="103,50.6 109.5,54.4 114.1,58.4 107.6,54.7 	"/>
	<polygon class="st0" points="105.6,61.4 112.1,65.1 104.7,70.3 98.2,66.6 	"/>
	<polygon class="st5" points="98.2,66.6 104.7,70.3 104.7,79.6 98.2,75.9 	"/>
	<polygon class="st0" points="134.7,27.7 128.2,24 120.1,28.7 126.6,32.4 	"/>
</g>
<path class="st5" d="M217.9,294.8l94-54.3c0.6-0.2,0.8-0.8,0.6-1.4c-0.1-0.3-0.3-0.5-0.6-0.6l-8.7-5c-1.1-0.5-2.4-0.5-3.5,0
	l-94,54.2c-0.6,0.2-0.8,0.8-0.6,1.4c0.1,0.3,0.3,0.5,0.6,0.6l8.7,5C215.5,295.3,216.8,295.3,217.9,294.8z"/>
<path class="st7" d="M309.3,30.9l-84.8,48.9c-2.6,1.7-4.2,4.5-4.3,7.5v201.1c0,2.8,1.9,3.9,4.3,2.5l84.8-48.9
	c2.6-1.7,4.2-4.5,4.3-7.5V33.4C313.6,30.7,311.7,29.6,309.3,30.9z"/>
<path class="st8" d="M224.5,79.9l84.8-48.9c2.1-1.2,3.9-0.5,4.3,1.7c-0.4-2.7-2-5.2-4.3-6.7l-3.5-2c-2.7-1.4-5.9-1.4-8.7,0
	l-84.8,48.9c-1.3,0.8-2.3,1.9-3.1,3.2l12.2,7C222.2,81.8,223.3,80.7,224.5,79.9z"/>
<path class="st9" d="M208,281.4c0.2,3,1.8,5.8,4.3,7.5l3.5,2c2.5,1.2,5.4,1.4,7.9,0.3c-2,0.8-3.6-0.4-3.6-2.8v-201
	c0.1-1.5,0.5-3,1.3-4.3l-12.2-7c-0.8,1.3-1.2,2.7-1.3,4.2V281.4z"/>
<path class="st4" d="M226.9,106.7L307,60.4c1.4-0.8,2.6-0.2,2.6,1.5v148.8c-0.1,1.8-1.1,3.5-2.6,4.5l-80.1,46.3
	c-1.4,0.8-2.6,0.2-2.6-1.5V111.2C224.4,109.4,225.3,107.7,226.9,106.7z"/>
<path class="st8" d="M266.9,63c-0.9,0.6-1.5,1.6-1.5,2.6c0,1,0.7,1.4,1.5,0.9c0.9-0.6,1.5-1.6,1.5-2.6
	C268.4,62.9,267.8,62.6,266.9,63z"/>
<path class="st8" d="M266.9,245.5c-3.5,2.3-5.8,6.2-6,10.4c0,3.8,2.7,5.4,6,3.5c3.5-2.3,5.8-6.2,6-10.4
	C272.9,245.1,270.2,243.6,266.9,245.5z"/>
<path class="st8" d="M252.5,78.5c-1.8,1.2-2.9,3.1-3,5.3c0,1.9,1.4,2.7,3,1.8c1.8-1.2,2.9-3.1,3.1-5.3
	C255.6,78.3,254.2,77.5,252.5,78.5z"/>
<path class="st8" d="M260,77.9c0,1.3,1,1.8,2.2,1.1l20-11.6c1.3-0.8,2.1-2.1,2.2-3.6c0-1.3-1-1.8-2.2-1.1l-20,11.6
	C260.9,75,260.1,76.4,260,77.9z"/>
<path class="st8" d="M214.8,113.1c1.4,0.9,2.3,2.5,2.4,4.2c0,1.6-1.1,2.2-2.4,1.4c-1.4-0.9-2.3-2.5-2.4-4.2
	C212.3,113,213.4,112.3,214.8,113.1z"/>
<path class="st8" d="M214.8,131.9c1.4,0.9,2.3,2.5,2.4,4.2c0,1.6-1.1,2.2-2.4,1.4c-1.4-0.9-2.3-2.5-2.4-4.2
	C212.3,131.7,213.4,131.1,214.8,131.9z"/>
<path class="st7" d="M214,113.5c1.4,0.9,2.3,2.5,2.4,4.2c0,1.6-1.1,2.2-2.4,1.4c-1.4-0.9-2.3-2.5-2.4-4.2
	C211.6,113.3,212.7,112.7,214,113.5z"/>
<path class="st7" d="M214,132.3c1.4,0.9,2.3,2.5,2.4,4.2c0,1.6-1.1,2.2-2.4,1.4c-1.4-0.9-2.4-2.5-2.4-4.2
	C211.6,132.1,212.7,131.5,214,132.3z"/>
<path class="st4" d="M325.8,66.6c0-1.7-1.2-2.3-2.6-1.5l-9.6,5.5l-70.5,40.7c-1.5,1-2.5,2.7-2.6,4.5v148.8c0,1.7,1.2,2.3,2.6,1.5
	l70.5-40.7l9.6-5.5c1.5-1,2.5-2.7,2.6-4.5V66.6z"/>
<path class="st2" d="M326.8,66.6c0.2-1.4-0.8-2.7-2.2-2.9c-0.7-0.1-1.3,0.1-1.9,0.5l-9.1,5.3l0,0l-70.9,41c-1.9,1.2-3,3.2-3.1,5.4
	v148.7c-0.1,1,0.4,2,1.3,2.5c0.4,0.2,0.8,0.3,1.2,0.3c0.6,0,1.2-0.2,1.7-0.5l71-41l0,0l9.1-5.3c1.8-1.2,3-3.2,3.1-5.4L326.8,66.6z
	 M313.6,224.3L313.6,224.3l-0.8,0.5l0,0l-70.1,40.5c-0.2,0.2-0.5,0.2-0.8,0.2c-0.1-0.1-0.3-0.4-0.3-0.8V115.9
	c0.1-1.5,0.9-2.8,2.1-3.6l70-40.5l0,0l10-5.8c0.2-0.2,0.5-0.2,0.8-0.2c0.1,0.1,0.3,0.4,0.3,0.8v148.8c-0.1,1.5-0.9,2.8-2.1,3.6
	L313.6,224.3L313.6,224.3z"/>
<path class="st2" d="M283.2,101.2c9-5.2,16.2-1,16.2,9.4s-7.3,23-16.2,28.1s-16.2,1-16.2-9.4S274.2,106.4,283.2,101.2z"/>
<path class="st2" d="M283.2,109.4c2.9-1.7,5.3-0.3,5.3,3c-0.2,3.7-2.2,7.1-5.3,9.1c-2.9,1.7-5.3,0.3-5.3-3
	C278.1,114.8,280.1,111.4,283.2,109.4z"/>
<path class="st2" d="M293.4,127.3c0-5.5-3.9-7.8-8.7-5l-3,1.7c-4.8,2.8-8.7,9.5-8.7,15v1.5c2.8,0.9,6.2,0.4,10-1.8
	c4.2-2.6,7.7-6,10.3-10.2L293.4,127.3z"/>
<path class="st10" d="M283.2,109.4c2.9-1.7,5.3-0.3,5.3,3c-0.2,3.7-2.2,7.1-5.3,9.1c-2.9,1.7-5.3,0.3-5.3-3
	C278.1,114.8,280.1,111.4,283.2,109.4z"/>
<path class="st10" d="M293.4,127.3c0-5.5-3.9-7.8-8.7-5l-3,1.7c-4.8,2.8-8.7,9.5-8.7,15v1.5c2.8,0.9,6.2,0.4,10-1.8
	c4.2-2.6,7.7-6,10.3-10.2L293.4,127.3z"/>
<path class="st2" d="M251.7,161.6l20.9-12.1c1-0.6,1.7-0.1,1.7,1v0.7c-0.1,1.2-0.7,2.3-1.7,3l-20.9,12.1c-0.9,0.6-1.7,0.1-1.7-1
	v-0.7C250.1,163.4,250.7,162.3,251.7,161.6z"/>
<path class="st11" d="M251.7,161.6l20.9-12.1c1-0.6,1.7-0.1,1.7,1v0.7c-0.1,1.2-0.7,2.3-1.7,3l-20.9,12.1c-0.9,0.6-1.7,0.1-1.7-1
	v-0.7C250.1,163.4,250.7,162.3,251.7,161.6z"/>
<path class="st2" d="M250.9,176.2l63.3-36.5c0.5-0.3,0.9-0.1,0.9,0.5v7.4c0,0.6-0.4,1.2-0.9,1.5l-63.3,36.5
	c-0.5,0.3-0.9,0.1-0.9-0.5v-7.4C250,177,250.4,176.5,250.9,176.2z"/>
<path class="st12" d="M250.9,176.2l63.3-36.5c0.5-0.3,0.9-0.1,0.9,0.5v7.4c0,0.6-0.4,1.2-0.9,1.5l-63.3,36.5
	c-0.5,0.3-0.9,0.1-0.9-0.5v-7.4C250,177,250.4,176.5,250.9,176.2z"/>
<path class="st2" d="M251.7,194.4l20.9-12.1c1-0.6,1.7-0.1,1.7,1v0.7c-0.1,1.2-0.7,2.3-1.7,3l-20.9,12.1c-0.9,0.6-1.7,0.1-1.7-1
	v-0.7C250.1,196.2,250.7,195.1,251.7,194.4z"/>
<path class="st13" d="M251.7,194.4l20.9-12.1c1-0.6,1.7-0.1,1.7,1v0.7c-0.1,1.2-0.7,2.3-1.7,3l-20.9,12.1c-0.9,0.6-1.7,0.1-1.7-1
	v-0.7C250.1,196.2,250.7,195.1,251.7,194.4z"/>
<path class="st2" d="M250.9,209l63.3-36.5c0.5-0.3,0.9-0.1,0.9,0.5v7.4c0,0.6-0.4,1.2-0.9,1.5l-63.3,36.5c-0.5,0.3-0.9,0.1-0.9-0.5
	v-7.4C250,209.9,250.4,209.3,250.9,209z"/>
<path class="st12" d="M250.9,209l63.3-36.5c0.5-0.3,0.9-0.1,0.9,0.5v7.4c0,0.6-0.4,1.2-0.9,1.5l-63.3,36.5c-0.5,0.3-0.9,0.1-0.9-0.5
	v-7.4C250,209.9,250.4,209.3,250.9,209z"/>
<path class="st2" d="M276.1,213.2l25-14.4c1-0.6,1.7-0.1,1.7,1v7.7c-0.1,1.2-0.7,2.3-1.7,3l-25,14.4c-1,0.5-1.7,0.1-1.7-1v-7.7
	C274.4,215,275.1,213.8,276.1,213.2z"/>
<path class="st13" d="M276.1,213.2l25-14.4c1-0.6,1.7-0.1,1.7,1v7.7c-0.1,1.2-0.7,2.3-1.7,3l-25,14.4c-1,0.5-1.7,0.1-1.7-1v-7.7
	C274.4,215,275.1,213.8,276.1,213.2z"/>
<path class="st14" d="M335.3,180.6c0,0-12.3-16.9-13-19c-0.6-1.5,0-3.8,0.2-4.8s0.3-3.4,0.5-4c0.3-1.1-1.2-0.9-2,0.1
	s-1.1,3.1-1.5,3.5s-3.7-4.4-5.4-6.6s-2.8-3.5-3.8-2.7c-0.8,0.6-0.2,1.9,1,3.8c0.7,1,1.4,2.1,2,3.1c0.2,0.4-0.8,0.4-1.4,1.3
	c-0.4,0.7,0,1.7-0.6,2.2c-0.8,0.6-1,1.6-0.5,2.5c1.1,1.7,2.5,3.3,4.2,4.5c1.8,1.3,2.6,1.7,3.7,3.4s10.9,19.4,11.5,20.5
	s1.9,3.2,3.9,3.3s17.7-13.5,18.5-14.2c2.6-2.2,3.4-2.5,3.9-0.5c0.2,0.7,0.3,1.4,0.3,2.1c0.3,2.5,2,11.3,2,11.3s8,3.9,14.6,2
	s8.8-4.7,8.8-4.7l-3.3-5.4c0.9-2.2,5-11.2,6.3-17.4l-20.6-3.3c-0.4-0.1-1.1-0.3-2-0.5c-1.1-0.3-4-1.3-6.2,0.6
	C349.4,167.8,335.3,180.6,335.3,180.6"/>
<path class="st8" d="M376.1,284.5l-3.7,5.1c1.7,0.8,3.5,1.2,5.4,1.1c3.3,0.1,4.2-1,4.3-1.2c0.6-1.2-0.3-3.4-0.5-5.2L376.1,284.5z"/>
<path class="st8" d="M372.7,287.2c0,0-4.5-0.3-7.6-0.7s-5.5,1.1-4.8,2.4s2.4,2.3,5.1,3.2c2.3,0.8,5,1.3,7.4,2s4,1.6,5.4,1.1
	c1.5-0.5,2.2-1.1,2.1-2.3c-0.3-1.6-0.7-3.2-1.2-4.7L372.7,287.2z"/>
<path class="st15" d="M382.1,279.4c0,0-0.6,4.7-0.6,5.7s-4.5,1.3-5.4-0.5l-0.1-5.7L382.1,279.4z"/>
<path class="st14" d="M377.6,282.2l1.6,7.1c0,0,0.1,0.9-3.5,1.4s-9.5-1.9-10.5-2.4s-1.1-1.5,2.5-1.3s4.9,0.2,4.9,0.2l-1.2-3.1
	L377.6,282.2z"/>
<path class="st15" d="M385.2,164.7l2.5-0.7c0,0,5.3,16.9,5.9,18.5s1.3,3.4,0.1,5.4c-1.4,2.4-8.6,12-8.6,12l-4.6-4.5l5.2-9.5
	l-4.6-9.3L385.2,164.7z"/>
<path class="st8" d="M359,142.8c-1.2-2.3-1.2-5,0.1-7.3c2.5-4.7,8.2-7,14.9-6.1c3.1,0.4,6.8,3,8.8,6.9c2.2,4.3,2.4,12.9,3,16.2
	L359,142.8z"/>
<path class="st14" d="M358.8,144.7c0,0-1.6,3.1-1.3,3.3c0.4,0.2,0.9,0.4,1.3,0.5L358.8,144.7z"/>
<path class="st14" d="M363.7,135c-1.7,1.1-4.7,3.2-4.9,10.1c-0.1,7,0.9,9.3,1.9,10.1c0.7,0.6,4.8,0.3,6.6-0.1s6.8-2.9,8.7-6.7
	c2.1-4.5,1.7-11-1.5-13C371.2,133.4,367.1,133.3,363.7,135z"/>
<path class="st2" d="M382.1,187.6c3.1,4.8,6,9,6.6,14.4c1.3,11.4-3,24.4-3.9,32.8c1.7,2.4,2.8,5.3,2.9,8.2c0,3.5-5.6,36.3-5.6,36.3
	s-4.1,1.2-6.1-0.5l-3.9-60.4l2-7.4L382.1,187.6z"/>
<path class="st2" d="M372.1,218.4l2-7.4c3.8-1,7.5-2.5,11-4.4c0,0-2.1,3.8-8.1,5.9L374,222l-0.3,21.6L372.1,218.4z"/>
<path class="st16" d="M372.1,218.4l2-7.4c3.8-1,7.5-2.5,11-4.4c0,0-2.1,3.8-8.1,5.9L374,222l-0.3,21.6L372.1,218.4z"/>
<path class="st2" d="M382.1,187.6c1.6,2.7,5.6,7.3,4.8,11.7c-1,5.4-3.9,9.1-12.7,11.8l-8.3,30c0,0,4.3,4,5.6,7.9s6.1,33.4,6.1,33.4
	s-1.5,2.4-6.1,1.8c0,0-16.2-37-17.4-39.4c-1.4-2.4-1.9-5.3-1.4-8c0.5-3.9,6-46.4,6-46.4L382.1,187.6z"/>
<g>
	<path class="st3" d="M382.1,187.6c3.1,4.8,6,9,6.6,14.4c1.3,11.4-3,24.4-3.9,32.8c1.7,2.4,2.8,5.3,2.9,8.2c0,3.5-5.6,36.3-5.6,36.3
		s-4.1,1.2-6.1-0.5l-3.9-60.4l2-7.4L382.1,187.6z"/>
	<path class="st3" d="M382.1,187.6c1.6,2.7,5.6,7.3,4.8,11.7c-1,5.4-3.9,9.1-12.7,11.8l-8.3,30c0,0,4.3,4,5.6,7.9s6.1,33.4,6.1,33.4
		s-1.5,2.4-6.1,1.8c0,0-16.2-37-17.4-39.4c-1.4-2.4-1.9-5.3-1.4-8c0.5-3.9,6-46.4,6-46.4L382.1,187.6z"/>
</g>
<path class="st2" d="M385.2,164.7l-20.6-3.3c-0.4-0.1-1.1-0.3-2-0.5l0,0c0,0-0.9,12.9-6.2,15.9l0,0c0.1,0.6,0.2,1.3,0.3,2.1
	c0.3,2.5,2,11.3,2,11.3s8,3.9,14.6,2s8.8-4.7,8.8-4.7l-3.3-5.4C379.8,180,383.9,171,385.2,164.7z"/>
<path class="st10" d="M385.2,164.7l-20.6-3.3c-0.4-0.1-1.1-0.3-2-0.5l0,0c0,0-0.9,12.9-6.2,15.9l0,0c0.1,0.6,0.2,1.3,0.3,2.1
	c0.3,2.5,2,11.3,2,11.3s8,3.9,14.6,2s8.8-4.7,8.8-4.7l-3.3-5.4C379.8,180,383.9,171,385.2,164.7z"/>
<path class="st2" d="M379.8,180.1c-2.7,1.6-5.6,3.1-8.6,4.2c2.7-0.1,5.3-0.8,7.7-2.1L379.8,180.1z"/>
<path class="st8" d="M363.2,135.4c0,0-1,6.5,1.4,10.3c0,0,0.9-2.6,3.1-2.1s2.3,3.4,0.8,5c-0.8,0.9-2.1,1.3-3.2,1
	c0,0-0.4,4.7-0.5,8.6s-1.2,12.5,3.2,16s15.5,4.7,20.8-2.6c2.9-4.1-1-11.2-2.7-19.2c-1.6-7.4-2.6-18.3-10.4-20.1
	S363.2,135.4,363.2,135.4z"/>
<g id="freepik--Cloud--inject-2">
	<path class="st1" d="M391.9,46.6l-1.6,1c0.1-0.6,0.2-1.2,0.2-1.8c0-3.3-2.4-4.7-5.2-3c-0.9,0.5-1.7,1.2-2.3,2l0,0
		c0-4.5-3.2-6.3-7.1-4.1c-4.2,2.7-6.8,7.3-7.1,12.2c0,0.2,0,0.4,0,0.7c-1-0.1-2,0.1-2.9,0.7c-3.1,2-5,5.4-5.2,9.1
		c0,0.4,0,0.8,0.1,1.3l-0.9,0.5c-2.4,1.4-4.3,4.1-4.3,6s1.9,2.4,4.3,1l32-18.4c2.4-1.4,4.3-4.1,4.3-6S394.3,45.2,391.9,46.6z"/>
</g>
</svg>
